<svg width="49" height="48" viewBox="0 0 49 48" fill="none" xmlns="http://www.w3.org/2000/svg">
<path d="M40.6572 24.0717C40.0844 24.0717 39.6905 24.4655 39.6905 25.0384V35.422C39.6905 35.8159 39.4399 36.0307 39.0818 36.0307H10.3657C9.97182 36.0307 9.75699 35.7801 9.75699 35.422V25.0384C9.75699 24.4655 9.36313 24.0717 8.79024 24.0717C8.21735 24.0717 7.82349 24.4655 7.82349 25.0384V35.422C7.82349 36.8901 8.93346 38.0001 10.4015 38.0001H39.1176C40.5856 38.0001 41.6956 36.8901 41.6956 35.422V25.0384C41.6598 24.4655 41.2659 24.0717 40.6572 24.0717Z" fill="#2E4059"/>
<path d="M39.8696 12.9003H31.0972V12.399C31.0972 11.0384 30.0588 10 28.6982 10H20.7494C19.3887 10 18.3504 11.0384 18.3504 12.399V12.9003H9.578C8.10997 12.9003 7 14.0102 7 15.4783V20.5985C7 21.7801 7.82353 22.8184 8.96931 23.0691L21.5371 25.8619V27.5448C21.5371 28.0102 21.8593 28.3325 22.3248 28.3325H27.1228C27.5882 28.3325 27.9105 28.0102 27.9105 27.5448V25.8619L40.4783 23.0691C41.624 22.8184 42.4476 21.7442 42.4476 20.5985V15.4783C42.4476 14.0102 41.3376 12.9003 39.8696 12.9003ZM40.4783 20.5627C40.4783 20.8849 40.2992 21.1355 39.977 21.1714L27.9105 23.8926V23.3913V22.7468C27.9105 22.2813 27.5882 21.9591 27.1228 21.9591H22.3248C21.8593 21.9591 21.5371 22.2813 21.5371 22.7468V23.3913V23.8926L9.43478 21.1714C9.14834 21.1355 8.96931 20.8849 8.96931 20.5627V15.4783C8.96931 15.0844 9.21995 14.8696 9.578 14.8696H39.8696C40.2634 14.8696 40.4783 15.1202 40.4783 15.4783V20.5627Z" fill="#2E4059"/>
</svg>
