<svg width="22" height="22" viewBox="0 0 22 22" fill="none" xmlns="http://www.w3.org/2000/svg">
<path d="M16 20C13.8733 20 12.1428 18.2698 12.1428 16.1428C12.1428 14.0159 13.8733 12.2857 16 12.2857C18.1267 12.2857 19.8571 14.0159 19.8571 16.1428C19.8571 18.2698 18.1267 20 16 20ZM16 13.1428C14.346 13.1428 13 14.4886 13 16.1428C13 17.7971 14.346 19.1428 16 19.1428C17.654 19.1428 19 17.7971 19 16.1428C19 14.4886 17.654 13.1428 16 13.1428Z" fill="#2E4059"/>
<path d="M17.143 16.5714H16.0001C15.7635 16.5714 15.5715 16.3795 15.5715 16.1429V14.4286C15.5715 14.1919 15.7635 14 16.0001 14C16.2367 14 16.4287 14.1919 16.4287 14.4286V15.7143H17.143C17.3796 15.7143 17.5715 15.9062 17.5715 16.1429C17.5715 16.3795 17.3796 16.5714 17.143 16.5714Z" fill="#2E4059"/>
<path d="M11.3942 18.8571H4.57143C3.7048 18.8571 3 18.1523 3 17.2857V3.57143C3 2.7048 3.7048 2 4.57143 2H14.8571C15.7238 2 16.4286 2.7048 16.4286 3.57143V11C16.4286 11.2366 16.2366 11.4286 16 11.4286C15.7634 11.4286 15.5714 11.2366 15.5714 11V3.57143C15.5714 3.17743 15.2511 2.85714 14.8571 2.85714H4.57143C4.17743 2.85714 3.85714 3.17743 3.85714 3.57143V17.2857C3.85714 17.6797 4.17743 18 4.57143 18H11.3942C11.6309 18 11.8228 18.1919 11.8228 18.4286C11.8228 18.6652 11.6309 18.8571 11.3942 18.8571Z" fill="#2E4059"/>
<path d="M7.4285 7.42856H6.28564C5.73433 7.42856 5.28564 6.97988 5.28564 6.42856V5.28571C5.28564 4.73439 5.73433 4.28571 6.28564 4.28571H7.4285C7.97982 4.28571 8.4285 4.73439 8.4285 5.28571V6.42856C8.4285 6.97988 7.97982 7.42856 7.4285 7.42856ZM6.28564 5.14285C6.20696 5.14285 6.14279 5.20702 6.14279 5.28571V6.42856C6.14279 6.50725 6.20696 6.57142 6.28564 6.57142H7.4285C7.50719 6.57142 7.57136 6.50725 7.57136 6.42856V5.28571C7.57136 5.20702 7.50719 5.14285 7.4285 5.14285H6.28564Z" fill="#2E4059"/>
<path d="M13.7143 5.14285H10.2857C10.0491 5.14285 9.85718 4.95091 9.85718 4.71428C9.85718 4.47765 10.0491 4.28571 10.2857 4.28571H13.7143C13.9509 4.28571 14.1429 4.47765 14.1429 4.71428C14.1429 4.95091 13.9509 5.14285 13.7143 5.14285Z" fill="#2E4059"/>
<path d="M12.5715 7.42855H10.2857C10.0491 7.42855 9.85718 7.23661 9.85718 6.99998C9.85718 6.76335 10.0491 6.57141 10.2857 6.57141H12.5715C12.8081 6.57141 13 6.76335 13 6.99998C13 7.23661 12.8081 7.42855 12.5715 7.42855Z" fill="#2E4059"/>
<path d="M7.4285 12H6.28564C5.73433 12 5.28564 11.5513 5.28564 11V9.85712C5.28564 9.3058 5.73433 8.85712 6.28564 8.85712H7.4285C7.97982 8.85712 8.4285 9.3058 8.4285 9.85712V11C8.4285 11.5513 7.97982 12 7.4285 12ZM6.28564 9.71426C6.20696 9.71426 6.14279 9.77843 6.14279 9.85712V11C6.14279 11.0787 6.20696 11.1428 6.28564 11.1428H7.4285C7.50719 11.1428 7.57136 11.0787 7.57136 11V9.85712C7.57136 9.77843 7.50719 9.71426 7.4285 9.71426H6.28564Z" fill="#2E4059"/>
<path d="M13.7143 9.71426H10.2857C10.0491 9.71426 9.85718 9.52232 9.85718 9.28569C9.85718 9.04906 10.0491 8.85712 10.2857 8.85712H13.7143C13.9509 8.85712 14.1429 9.04906 14.1429 9.28569C14.1429 9.52232 13.9509 9.71426 13.7143 9.71426Z" fill="#2E4059"/>
<path d="M12.5715 12H10.2857C10.0491 12 9.85718 11.8081 9.85718 11.5715C9.85718 11.3348 10.0491 11.1429 10.2857 11.1429H12.5715C12.8081 11.1429 13 11.3348 13 11.5715C13 11.8081 12.8081 12 12.5715 12Z" fill="#2E4059"/>
<path d="M7.4285 16.5714H6.28564C5.73433 16.5714 5.28564 16.1228 5.28564 15.5714V14.4286C5.28564 13.8773 5.73433 13.4286 6.28564 13.4286H7.4285C7.97982 13.4286 8.4285 13.8773 8.4285 14.4286V15.5714C8.4285 16.1228 7.97982 16.5714 7.4285 16.5714ZM6.28564 14.2857C6.20696 14.2857 6.14279 14.3499 6.14279 14.4286V15.5714C6.14279 15.6501 6.20696 15.7143 6.28564 15.7143H7.4285C7.50719 15.7143 7.57136 15.6501 7.57136 15.5714V14.4286C7.57136 14.3499 7.50719 14.2857 7.4285 14.2857H6.28564Z" fill="#2E4059"/>
<path d="M11.3943 14.2857H10.2857C10.0491 14.2857 9.85718 14.0938 9.85718 13.8572C9.85718 13.6205 10.0491 13.4286 10.2857 13.4286H11.3943C11.6309 13.4286 11.8228 13.6205 11.8228 13.8572C11.8228 14.0938 11.6309 14.2857 11.3943 14.2857Z" fill="#2E4059"/>
<path d="M10.8572 16.5714H10.2857C10.0491 16.5714 9.85718 16.3795 9.85718 16.1429C9.85718 15.9062 10.0491 15.7143 10.2857 15.7143H10.8572C11.0938 15.7143 11.2857 15.9062 11.2857 16.1429C11.2857 16.3795 11.0938 16.5714 10.8572 16.5714Z" fill="#2E4059"/>
</svg>
