<svg width="49" height="48" viewBox="0 0 49 48" fill="none" xmlns="http://www.w3.org/2000/svg">
<path d="M18.7213 32.2016C19.1067 31.5707 19.3333 30.8341 19.3333 30.0445C19.3333 27.7514 17.4671 25.8889 15.1778 25.8889C12.8847 25.8889 11.0222 27.7514 11.0222 30.0445C11.0222 30.8341 11.2451 31.5707 11.6304 32.2016C9.52622 32.9005 8 34.8838 8 37.2223V38.7334C8 39.9838 9.01622 41.0001 10.2667 41.0001H20.0889C21.3356 41.0001 22.3556 39.9838 22.3556 38.7334V37.2223C22.3556 34.8838 20.8293 32.9005 18.7213 32.2016ZM15.1778 27.4001C16.636 27.4001 17.8222 28.5863 17.8222 30.0445C17.8222 31.5027 16.636 32.6889 15.1778 32.6889C13.7196 32.6889 12.5333 31.5027 12.5333 30.0445C12.5333 28.5863 13.7196 27.4001 15.1778 27.4001ZM20.8444 38.7334C20.8444 39.1489 20.5044 39.4889 20.0889 39.4889H10.2667C9.84733 39.4889 9.51111 39.1489 9.51111 38.7334V37.2223C9.51111 35.2918 10.9656 33.6976 12.8356 33.4747C13.5004 33.9318 14.3089 34.2001 15.1778 34.2001C16.0429 34.2001 16.8513 33.9318 17.5162 33.4747C19.3862 33.6976 20.8444 35.2918 20.8444 37.2223V38.7334Z" fill="#2E4059"/>
<path d="M38.3657 32.2016C38.7511 31.5707 38.9777 30.8341 38.9777 30.0445C38.9777 27.7514 37.1115 25.8889 34.8222 25.8889C32.5291 25.8889 30.6666 27.7514 30.6666 30.0445C30.6666 30.8341 30.8895 31.5707 31.2749 32.2016C29.1706 32.9005 27.6444 34.8838 27.6444 37.2223V38.7334C27.6444 39.9838 28.6606 41.0001 29.9111 41.0001H39.7333C40.98 41.0001 42 39.9838 42 38.7334V37.2223C42 34.8838 40.4737 32.9005 38.3657 32.2016ZM34.8222 27.4001C36.2766 27.4001 37.4666 28.5863 37.4666 30.0445C37.4666 31.5027 36.2766 32.6889 34.8222 32.6889C33.364 32.6889 32.1777 31.5027 32.1777 30.0445C32.1777 28.5863 33.364 27.4001 34.8222 27.4001ZM40.4889 38.7334C40.4889 39.1489 40.1489 39.4889 39.7333 39.4889H29.9111C29.4917 39.4889 29.1555 39.1489 29.1555 38.7334V37.2223C29.1555 35.2918 30.61 33.6976 32.48 33.4747C33.1449 33.9318 33.9533 34.2001 34.8222 34.2001C35.6873 34.2001 36.4957 33.9318 37.1606 33.4747C39.0306 33.6976 40.4889 35.2918 40.4889 37.2223V38.7334Z" fill="#2E4059"/>
<path d="M20.0888 22.1111H29.911C31.1577 22.1111 32.1777 21.0949 32.1777 19.8444V18.3333C32.1777 15.9949 30.6515 14.0116 28.5435 13.3127C28.9288 12.6818 29.1555 11.9451 29.1555 11.1556C29.1555 8.86244 27.2893 7 24.9999 7C22.7068 7 20.8444 8.86244 20.8444 11.1556C20.8444 11.9451 21.0673 12.6818 21.4526 13.3127C19.3484 14.0116 17.8221 15.9949 17.8221 18.3333V19.8444C17.8221 21.0949 18.8384 22.1111 20.0888 22.1111ZM24.9999 8.51111C26.4544 8.51111 27.6444 9.69733 27.6444 11.1556C27.6444 12.6138 26.4544 13.8 24.9999 13.8C23.5417 13.8 22.3555 12.6138 22.3555 11.1556C22.3555 9.69733 23.5417 8.51111 24.9999 8.51111ZM19.3333 18.3333C19.3333 16.4029 20.7877 14.8087 22.6577 14.5858C23.3226 15.0429 24.131 15.3111 24.9999 15.3111C25.865 15.3111 26.6735 15.0429 27.3384 14.5858C29.2084 14.8087 30.6666 16.4029 30.6666 18.3333V19.8444C30.6666 20.26 30.3266 20.6 29.911 20.6H20.0888C19.6695 20.6 19.3333 20.26 19.3333 19.8444V18.3333Z" fill="#2E4059"/>
<path d="M28.5548 31.7104C28.8494 31.4157 28.8494 30.936 28.5548 30.6413L25.7554 27.842V24.3777C25.7554 23.9622 25.4154 23.6222 24.9999 23.6222C24.5843 23.6222 24.2443 23.9622 24.2443 24.3777V27.842L21.445 30.6413C21.1503 30.936 21.1503 31.4157 21.445 31.7104C21.5886 31.8577 21.7812 31.9333 21.9777 31.9333C22.1741 31.9333 22.363 31.8577 22.5103 31.7104L24.9999 29.2246L27.4894 31.7142C27.633 31.8577 27.8257 31.9333 28.0221 31.9333C28.2186 31.9333 28.4074 31.8577 28.5548 31.7104Z" fill="#2E4059"/>
</svg>
