<svg width="49" height="48" viewBox="0 0 49 48" fill="none" xmlns="http://www.w3.org/2000/svg">
<path d="M37.8964 29.3572L31.3928 22.9286L37.8964 16.5L39.4286 18.0107L34.4571 22.9286L39.4286 27.8465L37.8964 29.3572Z" fill="#2E4059"/>
<path d="M31.393 39.0001H29.2501V33.6429C29.2501 32.2221 28.6857 30.8595 27.681 29.8548C26.6764 28.8502 25.3138 28.2857 23.893 28.2857H17.4644C16.0436 28.2857 14.681 28.8502 13.6763 29.8548C12.6716 30.8595 12.1072 32.2221 12.1072 33.6429V39.0001H9.96436V33.6429C9.96436 31.6538 10.7545 29.7461 12.1611 28.3396C13.5676 26.9331 15.4752 26.1429 17.4644 26.1429H23.893C25.8821 26.1429 27.7897 26.9331 29.1963 28.3396C30.6028 29.7461 31.393 31.6538 31.393 33.6429V39.0001Z" fill="#2E4059"/>
<path d="M20.6787 11.1429C21.7383 11.1429 22.774 11.4571 23.655 12.0457C24.536 12.6344 25.2226 13.471 25.6281 14.4499C26.0336 15.4288 26.1397 16.506 25.933 17.5451C25.7262 18.5843 25.216 19.5389 24.4668 20.2881C23.7176 21.0373 22.763 21.5475 21.7239 21.7542C20.6847 21.9609 19.6075 21.8549 18.6286 21.4494C17.6497 21.0439 16.8131 20.3573 16.2244 19.4763C15.6358 18.5953 15.3216 17.5596 15.3216 16.5C15.3216 15.0792 15.886 13.7166 16.8907 12.7119C17.8953 11.7073 19.2579 11.1429 20.6787 11.1429ZM20.6787 9C19.1954 9 17.7453 9.43987 16.5119 10.264C15.2786 11.0881 14.3173 12.2594 13.7496 13.6299C13.182 15.0003 13.0334 16.5083 13.3228 17.9632C13.6122 19.4181 14.3265 20.7544 15.3754 21.8033C16.4243 22.8522 17.7607 23.5665 19.2156 23.8559C20.6704 24.1453 22.1784 23.9968 23.5489 23.4291C24.9193 22.8615 26.0907 21.9002 26.9148 20.6668C27.7389 19.4334 28.1787 17.9834 28.1787 16.5C28.1787 14.5109 27.3886 12.6032 25.982 11.1967C24.5755 9.79018 22.6679 9 20.6787 9Z" fill="#2E4059"/>
</svg>
