<svg width="20" height="20" viewBox="0 0 24 24" fill="none" xmlns="http://www.w3.org/2000/svg">
<path d="M11.8965 3.95722V2.97052H12.22C12.3487 2.97052 12.4721 2.9194 12.5631 2.82839C12.6541 2.73739 12.7052 2.61396 12.7052 2.48526C12.7052 2.35656 12.6541 2.23313 12.5631 2.14213C12.4721 2.05113 12.3487 2 12.22 2H10.6024C10.4737 2 10.3503 2.05113 10.2593 2.14213C10.1683 2.23313 10.1172 2.35656 10.1172 2.48526C10.1172 2.61396 10.1683 2.73739 10.2593 2.82839C10.3503 2.9194 10.4737 2.97052 10.6024 2.97052H10.926V3.95722C8.74084 4.0835 6.691 5.05657 5.21175 6.66979C3.7325 8.28301 2.94034 10.4093 3.00351 12.5972C3.06667 14.785 3.98018 16.8621 5.55004 18.3873C7.1199 19.9125 9.22245 20.7656 11.4112 20.7656C13.6 20.7656 15.7025 19.9125 17.2724 18.3873C18.8423 16.8621 19.7558 14.785 19.8189 12.5972C19.8821 10.4093 19.0899 8.28301 17.6107 6.66979C16.1314 5.05657 14.0816 4.0835 11.8965 3.95722ZM11.4112 19.7929C9.93959 19.7929 8.501 19.3566 7.27739 18.539C6.05378 17.7214 5.10008 16.5593 4.53692 15.1997C3.97375 13.8401 3.8264 12.344 4.1135 10.9007C4.4006 9.4573 5.10926 8.1315 6.14985 7.0909C7.19045 6.0503 8.51626 5.34164 9.95961 5.05454C11.403 4.76744 12.899 4.91479 14.2586 5.47796C15.6183 6.04113 16.7803 6.99482 17.5979 8.21844C18.4155 9.44205 18.8519 10.8806 18.8519 12.3523C18.8519 13.3294 18.6594 14.2969 18.2855 15.1997C17.9116 16.1024 17.3635 16.9227 16.6726 17.6136C15.9816 18.3046 15.1614 18.8526 14.2586 19.2266C13.3559 19.6005 12.3883 19.7929 11.4112 19.7929Z" fill="#2E4059"/>
<path d="M11.4111 7.33789C10.4194 7.33789 9.44988 7.63198 8.62527 8.18297C7.80066 8.73395 7.15795 9.51709 6.77843 10.4333C6.3989 11.3496 6.2996 12.3578 6.49308 13.3305C6.68656 14.3032 7.16413 15.1967 7.86541 15.898C8.56668 16.5992 9.46016 17.0768 10.4329 17.2703C11.4055 17.4638 12.4138 17.3645 13.33 16.9849C14.2463 16.6054 15.0294 15.9627 15.5804 15.1381C16.1314 14.3135 16.4255 13.344 16.4255 12.3523C16.4246 11.0226 15.8961 9.74771 14.9559 8.80751C14.0157 7.86732 12.7407 7.33875 11.4111 7.33789ZM11.4111 16.3961C10.6113 16.3961 9.82947 16.159 9.16446 15.7146C8.49946 15.2703 7.98114 14.6387 7.67507 13.8998C7.36901 13.1609 7.28892 12.3478 7.44496 11.5634C7.60099 10.7789 7.98613 10.0584 8.55167 9.49283C9.11721 8.92729 9.83776 8.54215 10.6222 8.38612C11.4066 8.23008 12.2197 8.31017 12.9586 8.61623C13.6975 8.9223 14.3291 9.44062 14.7734 10.1056C15.2178 10.7706 15.455 11.5525 15.455 12.3523C15.4532 13.4242 15.0267 14.4518 14.2687 15.2098C13.5107 15.9678 12.4831 16.3944 11.4111 16.3961Z" fill="#2E4059"/>
<path d="M13.3782 10.5309L10.3922 13.1448L9.47022 12.2163C9.37882 12.1262 9.25564 12.0757 9.1273 12.0757C8.99896 12.0757 8.87578 12.1262 8.78438 12.2163C8.739 12.2612 8.70296 12.3146 8.67837 12.3734C8.65378 12.4323 8.64111 12.4955 8.64111 12.5593C8.64111 12.623 8.65378 12.6862 8.67837 12.7451C8.70296 12.8039 8.739 12.8573 8.78438 12.9022L10.0331 14.1509C10.078 14.1961 10.1315 14.232 10.1903 14.2564C10.2492 14.2809 10.3123 14.2934 10.376 14.2933C10.4951 14.2956 10.6107 14.2528 10.6996 14.1736L14.0284 11.262C14.1254 11.1762 14.1843 11.0554 14.1922 10.9262C14.2001 10.7969 14.1563 10.6699 14.0705 10.5729C13.9847 10.476 13.8639 10.4171 13.7347 10.4092C13.6055 10.4013 13.4784 10.4451 13.3814 10.5309H13.3782Z" fill="#2E4059"/>
</svg>
