<svg width="22" height="22" viewBox="0 0 22 22" fill="none" xmlns="http://www.w3.org/2000/svg">
<path d="M6.00312 2H13.61C14.1611 2 14.662 2.22539 15.0252 2.58799C15.3878 2.95059 15.6132 3.45206 15.6132 4.00312V4.70628H16.4453C16.9963 4.70628 17.4972 4.93167 17.8604 5.29427C18.223 5.65687 18.4484 6.15834 18.4484 6.7094V17.9969C18.4484 18.5485 18.223 19.0494 17.8604 19.412C17.4972 19.7752 16.9963 20 16.4453 20H8.83835C8.28729 20 7.78637 19.7746 7.42322 19.412C7.06062 19.0494 6.83523 18.5485 6.83523 17.9969V17.2937H6.00312C5.45206 17.2937 4.95114 17.0683 4.58799 16.7057C4.22539 16.3431 4 15.8422 4 15.2906V4.00312C4 3.45206 4.22539 2.95059 4.58799 2.58799C4.95114 2.22483 5.45206 2 6.00312 2ZM15.6132 5.55051V15.2911C15.6132 15.8428 15.3878 16.3437 15.0252 16.7063C14.662 17.0689 14.1611 17.2943 13.61 17.2943H7.67946V17.9974C7.67946 18.3159 7.81007 18.6058 8.02057 18.8163C8.23053 19.0263 8.52039 19.1574 8.83891 19.1574H16.4458C16.7643 19.1574 17.0542 19.0268 17.2641 18.8163C17.4741 18.6058 17.6053 18.3159 17.6053 17.9974V6.70996C17.6053 6.39144 17.4746 6.10158 17.2641 5.89162C17.0542 5.68112 16.7643 5.55051 16.4458 5.55051H15.6137H15.6132ZM6.49357 11.8415C6.26047 11.8415 6.07146 11.6525 6.07146 11.4194C6.07146 11.1863 6.26047 10.9972 6.49357 10.9972H11.4289C11.662 10.9972 11.8505 11.1863 11.8505 11.4194C11.8505 11.6525 11.6615 11.8415 11.4289 11.8415H6.49357ZM6.49357 8.71969C6.26047 8.71969 6.07146 8.53068 6.07146 8.29813C6.07146 8.06503 6.26047 7.87601 6.49357 7.87601H13.119C13.3521 7.87601 13.5411 8.06503 13.5411 8.29813C13.5411 8.53123 13.3521 8.71969 13.119 8.71969H6.49357ZM6.49357 5.59791C6.26047 5.59791 6.07146 5.40889 6.07146 5.17579C6.07146 4.94269 6.26047 4.75422 6.49357 4.75422H13.119C13.3521 4.75422 13.5411 4.94324 13.5411 5.17579C13.5411 5.40889 13.3521 5.59791 13.119 5.59791H6.49357ZM13.6095 2.84423H6.00257C5.68406 2.84423 5.3942 2.97483 5.18424 3.18534C4.97373 3.39585 4.84313 3.68571 4.84313 4.00422V15.2917C4.84313 15.6102 4.97373 15.9001 5.18424 16.11C5.3942 16.3205 5.68406 16.4511 6.00257 16.4511H13.6095C13.928 16.4511 14.2179 16.3205 14.4278 16.11C14.6383 15.9001 14.7689 15.6102 14.7689 15.2917V5.1295V4.00422C14.7689 3.68571 14.6383 3.39585 14.4278 3.18534C14.2179 2.97539 13.928 2.84423 13.6095 2.84423Z" fill="#2E4059"/>
</svg>
