<svg width="22" height="22" viewBox="0 0 22 22" fill="none" xmlns="http://www.w3.org/2000/svg">
<path d="M9.50015 17.107H13.3575C13.4427 17.107 13.5245 17.0732 13.5848 17.0129C13.645 16.9526 13.6789 16.8708 13.6789 16.7856V15.8213C13.6789 15.395 13.5096 14.9862 13.2082 14.6848C12.9068 14.3834 12.498 14.2141 12.0717 14.2141H10.7859C10.3597 14.2141 9.95086 14.3834 9.64945 14.6848C9.34804 14.9862 9.17871 15.395 9.17871 15.8213V16.7856C9.17871 16.8708 9.21258 16.9526 9.27286 17.0129C9.33314 17.0732 9.4149 17.107 9.50015 17.107ZM9.8216 15.8213C9.8216 15.5655 9.9232 15.3202 10.104 15.1394C10.2849 14.9585 10.5302 14.8569 10.7859 14.8569H12.0717C12.3275 14.8569 12.5727 14.9585 12.7536 15.1394C12.9344 15.3202 13.036 15.5655 13.036 15.8213V16.4642H9.8216V15.8213Z" fill="#2E4059"/>
<path d="M6.60721 20H16.2505C16.6768 20 17.0856 19.8307 17.387 19.5293C17.6884 19.2278 17.8577 18.819 17.8577 18.3928V5.21363C17.8577 4.78737 17.6884 4.37857 17.387 4.07715C17.0856 3.77574 16.6768 3.60641 16.2505 3.60641H14.5565C14.1993 3.1093 13.7289 2.70435 13.1842 2.42502C12.6395 2.14569 12.0362 2 11.424 2C10.8119 2 10.2086 2.14569 9.66386 2.42502C9.11917 2.70435 8.64878 3.1093 8.29158 3.60641C8.26595 3.60331 8.24005 3.60331 8.21443 3.60641H6.60721C6.18095 3.60641 5.77215 3.77574 5.47074 4.07715C5.16933 4.37857 5 4.78737 5 5.21363V18.3928C5 18.819 5.16933 19.2278 5.47074 19.5293C5.77215 19.8307 6.18095 20 6.60721 20ZM11.4289 2.64208C12.0646 2.64208 12.6861 2.83061 13.2147 3.18381C13.7433 3.53702 14.1553 4.03904 14.3986 4.6264C14.6419 5.21376 14.7056 5.86008 14.5815 6.48362C14.4575 7.10715 14.1513 7.67991 13.7018 8.12946C13.2523 8.579 12.6795 8.88515 12.056 9.00918C11.4324 9.13321 10.7861 9.06955 10.1987 8.82626C9.61139 8.58296 9.10936 8.17096 8.75616 7.64235C8.40295 7.11374 8.21443 6.49227 8.21443 5.85651C8.21443 5.00399 8.55309 4.18639 9.15591 3.58357C9.75874 2.98075 10.5763 2.64208 11.4289 2.64208ZM5.64289 5.21363C5.64289 4.95787 5.74448 4.71259 5.92533 4.53174C6.10618 4.3509 6.35146 4.2493 6.60721 4.2493H7.92835C7.65701 4.83702 7.53796 5.48358 7.58215 6.12941C7.62634 6.77523 7.83235 7.39955 8.18121 7.94484C8.53006 8.49013 9.01054 8.93886 9.57837 9.24968C10.1462 9.56049 10.7831 9.72341 11.4305 9.72341C12.0778 9.72341 12.7147 9.56049 13.2826 9.24968C13.8504 8.93886 14.3309 8.49013 14.6797 7.94484C15.0286 7.39955 15.2346 6.77523 15.2788 6.12941C15.323 5.48358 15.2039 4.83702 14.9326 4.2493H16.2505C16.5063 4.2493 16.7515 4.3509 16.9324 4.53174C17.1132 4.71259 17.2148 4.95787 17.2148 5.21363V18.3928C17.2148 18.6485 17.1132 18.8938 16.9324 19.0747C16.7515 19.2555 16.5063 19.3571 16.2505 19.3571H6.60721C6.35146 19.3571 6.10618 19.2555 5.92533 19.0747C5.74448 18.8938 5.64289 18.6485 5.64289 18.3928V5.21363Z" fill="#2E4059"/>
<path d="M12.5218 7.39947C12.59 7.45062 12.6757 7.47259 12.7601 7.46053C12.8445 7.44848 12.9206 7.40339 12.9718 7.33519C13.0229 7.26698 13.0449 7.18126 13.0328 7.09686C13.0208 7.01247 12.9757 6.93632 12.9075 6.88517L11.7503 6.01727V3.285C11.7503 3.19975 11.7164 3.11799 11.6562 3.05771C11.5959 2.99743 11.5141 2.96356 11.4289 2.96356C11.3436 2.96356 11.2619 2.99743 11.2016 3.05771C11.1413 3.11799 11.1074 3.19975 11.1074 3.285V6.17799C11.1074 6.22789 11.119 6.27711 11.1414 6.32174C11.1637 6.36638 11.1961 6.4052 11.236 6.43515L12.5218 7.39947Z" fill="#2E4059"/>
<path d="M11.4287 13.8926C11.7466 13.8926 12.0574 13.7983 12.3217 13.6217C12.586 13.4451 12.792 13.1941 12.9136 12.9004C13.0353 12.6068 13.0671 12.2836 13.0051 11.9718C12.9431 11.6601 12.79 11.3737 12.5652 11.1489C12.3404 10.9241 12.0541 10.7711 11.7423 10.709C11.4305 10.647 11.1074 10.6789 10.8137 10.8005C10.52 10.9222 10.269 11.1282 10.0924 11.3925C9.91579 11.6568 9.82153 11.9675 9.82153 12.2854C9.82153 12.4964 9.8631 12.7054 9.94387 12.9004C10.0246 13.0954 10.143 13.2726 10.2923 13.4218C10.4415 13.5711 10.6187 13.6895 10.8137 13.7702C11.0087 13.851 11.2177 13.8926 11.4287 13.8926ZM11.4287 11.321C11.6195 11.321 11.8059 11.3776 11.9645 11.4836C12.1231 11.5895 12.2467 11.7401 12.3197 11.9163C12.3927 12.0926 12.4118 12.2864 12.3745 12.4735C12.3373 12.6606 12.2455 12.8324 12.1106 12.9673C11.9758 13.1021 11.8039 13.194 11.6169 13.2312C11.4298 13.2684 11.2359 13.2493 11.0597 13.1763C10.8835 13.1033 10.7329 12.9797 10.6269 12.8211C10.521 12.6625 10.4644 12.4761 10.4644 12.2854C10.4644 12.0296 10.566 11.7843 10.7469 11.6035C10.9277 11.4226 11.173 11.321 11.4287 11.321Z" fill="#2E4059"/>
</svg>
