<svg width="49" height="48" viewBox="0 0 49 48" fill="none" xmlns="http://www.w3.org/2000/svg">
<path d="M14.4327 35.3793C14.2827 35.3793 14.1378 35.3121 14.0396 35.1983L12.7102 33.6466C12.524 33.4293 12.5499 33.1034 12.7671 32.9172C12.9844 32.731 13.3102 32.7569 13.4965 32.9741L14.3499 33.9672L15.7568 31.5C15.8965 31.2517 16.212 31.1638 16.4602 31.3086C16.7085 31.4483 16.7965 31.7638 16.6516 32.0121L14.8775 35.1155C14.7947 35.2603 14.6447 35.3586 14.4792 35.3741C14.4637 35.3793 14.4482 35.3793 14.4327 35.3793Z" fill="#2E4059"/>
<path d="M23.4483 13.138H18.7931C18.5086 13.138 18.2759 12.9052 18.2759 12.6207C18.2759 12.3363 18.5086 12.1035 18.7931 12.1035H23.4483C23.7328 12.1035 23.9655 12.3363 23.9655 12.6207C23.9655 12.9052 23.7328 13.138 23.4483 13.138Z" fill="#2E4059"/>
<path d="M36.3793 39.0001H13.6207C11.6241 39.0001 10 37.3759 10 35.3794V15.7242C10 13.7276 11.6241 12.1035 13.6207 12.1035H15.6897C15.9741 12.1035 16.2069 12.3363 16.2069 12.6207C16.2069 12.9052 15.9741 13.138 15.6897 13.138H13.6207C12.1931 13.138 11.0345 14.2966 11.0345 15.7242V35.3794C11.0345 36.8069 12.1931 37.9656 13.6207 37.9656H36.3793C37.8069 37.9656 38.9655 36.8069 38.9655 35.3794V15.7242C38.9655 14.2966 37.8069 13.138 36.3793 13.138H34.3103C34.0259 13.138 33.7931 12.9052 33.7931 12.6207C33.7931 12.3363 34.0259 12.1035 34.3103 12.1035H36.3793C38.3759 12.1035 40 13.7276 40 15.7242V35.3794C40 37.3759 38.3759 39.0001 36.3793 39.0001Z" fill="#2E4059"/>
<path d="M31.207 13.138H26.5518C26.2673 13.138 26.0345 12.9052 26.0345 12.6207C26.0345 12.3363 26.2673 12.1035 26.5518 12.1035H31.207C31.4914 12.1035 31.7242 12.3363 31.7242 12.6207C31.7242 12.9052 31.4914 13.138 31.207 13.138Z" fill="#2E4059"/>
<path d="M39.4828 18.3103H10.5172C10.2328 18.3103 10 18.0776 10 17.7931C10 17.5086 10.2328 17.2758 10.5172 17.2758H39.4828C39.7672 17.2758 40 17.5086 40 17.7931C40 18.0776 39.7672 18.3103 39.4828 18.3103Z" fill="#2E4059"/>
<path d="M18.7932 15.2069H15.6897C15.4052 15.2069 15.1725 14.9741 15.1725 14.6897V9.51724C15.1725 9.23276 15.4052 9 15.6897 9H18.7932C19.0777 9 19.3104 9.23276 19.3104 9.51724V14.6897C19.3104 14.9741 19.0777 15.2069 18.7932 15.2069ZM16.207 14.1724H18.2759V10.0345H16.207V14.1724Z" fill="#2E4059"/>
<path d="M34.3103 15.2069H31.2068C30.9223 15.2069 30.6896 14.9741 30.6896 14.6897V9.51724C30.6896 9.23276 30.9223 9 31.2068 9H34.3103C34.5947 9 34.8275 9.23276 34.8275 9.51724V14.6897C34.8275 14.9741 34.5947 15.2069 34.3103 15.2069ZM31.7241 14.1724H33.793V10.0345H31.7241V14.1724Z" fill="#2E4059"/>
<path d="M26.5517 15.2069H23.4483C23.1638 15.2069 22.931 14.9741 22.931 14.6897V9.51724C22.931 9.23276 23.1638 9 23.4483 9H26.5517C26.8362 9 27.069 9.23276 27.069 9.51724V14.6897C27.069 14.9741 26.8362 15.2069 26.5517 15.2069ZM23.9655 14.1724H26.0345V10.0345H23.9655V14.1724Z" fill="#2E4059"/>
<path d="M26.5517 35.3794H23.4483C23.1638 35.3794 22.931 35.1466 22.931 34.8621V31.7587C22.931 31.4742 23.1638 31.2414 23.4483 31.2414H26.5517C26.8362 31.2414 27.069 31.4742 27.069 31.7587V34.8621C27.069 35.1466 26.8362 35.3794 26.5517 35.3794ZM23.9655 34.3449H26.0345V32.2759H23.9655V34.3449Z" fill="#2E4059"/>
<path d="M21.3792 35.3794H18.2758C17.9913 35.3794 17.7585 35.1466 17.7585 34.8621V31.7587C17.7585 31.4742 17.9913 31.2414 18.2758 31.2414H21.3792C21.6637 31.2414 21.8965 31.4742 21.8965 31.7587V34.8621C21.8965 35.1466 21.6637 35.3794 21.3792 35.3794ZM18.793 34.3449H20.862V32.2759H18.793V34.3449Z" fill="#2E4059"/>
<path d="M36.8966 29.6896H33.7931C33.5086 29.6896 33.2759 29.4569 33.2759 29.1724V26.0689C33.2759 25.7844 33.5086 25.5517 33.7931 25.5517H36.8966C37.1811 25.5517 37.4138 25.7844 37.4138 26.0689V29.1724C37.4138 29.4569 37.1811 29.6896 36.8966 29.6896ZM34.3104 28.6551H36.3793V26.5862H34.3104V28.6551Z" fill="#2E4059"/>
<path d="M26.5517 29.6896H23.4483C23.1638 29.6896 22.931 29.4569 22.931 29.1724V26.0689C22.931 25.7844 23.1638 25.5517 23.4483 25.5517H26.5517C26.8362 25.5517 27.069 25.7844 27.069 26.0689V29.1724C27.069 29.4569 26.8362 29.6896 26.5517 29.6896ZM23.9655 28.6551H26.0345V26.5862H23.9655V28.6551Z" fill="#2E4059"/>
<path d="M21.3792 29.6896H18.2758C17.9913 29.6896 17.7585 29.4569 17.7585 29.1724V26.0689C17.7585 25.7844 17.9913 25.5517 18.2758 25.5517H21.3792C21.6637 25.5517 21.8965 25.7844 21.8965 26.0689V29.1724C21.8965 29.4569 21.6637 29.6896 21.3792 29.6896ZM18.793 28.6551H20.862V26.5862H18.793V28.6551Z" fill="#2E4059"/>
<path d="M16.2069 29.6896H13.1034C12.8189 29.6896 12.5862 29.4569 12.5862 29.1724V26.0689C12.5862 25.7844 12.8189 25.5517 13.1034 25.5517H16.2069C16.4914 25.5517 16.7241 25.7844 16.7241 26.0689V29.1724C16.7241 29.4569 16.4914 29.6896 16.2069 29.6896ZM13.6207 28.6551H15.6896V26.5862H13.6207V28.6551Z" fill="#2E4059"/>
<path d="M36.8966 24H33.7931C33.5086 24 33.2759 23.7672 33.2759 23.4828V20.3793C33.2759 20.0948 33.5086 19.8621 33.7931 19.8621H36.8966C37.1811 19.8621 37.4138 20.0948 37.4138 20.3793V23.4828C37.4138 23.7672 37.1811 24 36.8966 24ZM34.3104 22.9655H36.3793V20.8966H34.3104V22.9655Z" fill="#2E4059"/>
<path d="M31.7242 24H28.6208C28.3363 24 28.1035 23.7672 28.1035 23.4828V20.3793C28.1035 20.0948 28.3363 19.8621 28.6208 19.8621H31.7242C32.0087 19.8621 32.2414 20.0948 32.2414 20.3793V23.4828C32.2414 23.7672 32.0087 24 31.7242 24ZM29.138 22.9655H31.207V20.8966H29.138V22.9655Z" fill="#2E4059"/>
<path d="M26.5517 24H23.4483C23.1638 24 22.931 23.7672 22.931 23.4828V20.3793C22.931 20.0948 23.1638 19.8621 23.4483 19.8621H26.5517C26.8362 19.8621 27.069 20.0948 27.069 20.3793V23.4828C27.069 23.7672 26.8362 24 26.5517 24ZM23.9655 22.9655H26.0345V20.8966H23.9655V22.9655Z" fill="#2E4059"/>
<path d="M16.2069 24H13.1034C12.8189 24 12.5862 23.7672 12.5862 23.4828V20.3793C12.5862 20.0948 12.8189 19.8621 13.1034 19.8621H16.2069C16.4914 19.8621 16.7241 20.0948 16.7241 20.3793V23.4828C16.7241 23.7672 16.4914 24 16.2069 24ZM13.6207 22.9655H15.6896V20.8966H13.6207V22.9655Z" fill="#2E4059"/>
<path d="M29.95 29.6897C29.8 29.6897 29.6552 29.6225 29.5569 29.5087L28.2276 27.9569C28.0414 27.7397 28.0672 27.4138 28.2845 27.2276C28.5017 27.0414 28.8276 27.0673 29.0138 27.2845L29.8672 28.2776L31.2741 25.8104C31.4138 25.5621 31.7293 25.4742 31.9776 25.619C32.2259 25.7587 32.3138 26.0742 32.169 26.3225L30.3948 29.4259C30.3121 29.5707 30.1621 29.669 29.9965 29.6845C29.981 29.6897 29.9655 29.6897 29.95 29.6897Z" fill="#2E4059"/>
<path d="M19.6051 24C19.4551 24 19.3103 23.9327 19.212 23.8189L17.8827 22.2672C17.6965 22.05 17.7224 21.7241 17.9396 21.5379C18.1569 21.3517 18.4827 21.3775 18.6689 21.5948L19.5224 22.5879L20.9293 20.1207C21.0689 19.8724 21.3845 19.7844 21.6327 19.9293C21.881 20.0689 21.9689 20.3844 21.8241 20.6327L20.05 23.7362C19.9672 23.881 19.8172 23.9793 19.6517 23.9948C19.6362 24 19.6207 24 19.6051 24Z" fill="#2E4059"/>
</svg>
