<svg width="49" height="48" viewBox="0 0 49 48" fill="none" xmlns="http://www.w3.org/2000/svg">
<path d="M36.2164 40.5326H11.829C11.4632 40.5326 11.2194 40.2887 11.2194 39.9229V14.9259C11.2194 14.621 11.4632 14.3162 11.829 14.3162C12.1339 14.3162 12.4387 14.5601 12.4387 14.8649L13.6581 37.4842H36.2164C36.5822 37.4842 36.8261 37.728 36.8261 38.0939V39.9229C36.8261 40.2887 36.5822 40.5326 36.2164 40.5326ZM12.4387 39.3132H35.6067V38.7035H13.0484C12.7436 38.7035 12.4387 38.4597 12.4387 38.1548V39.3132Z" fill="#2E4059"/>
<path d="M37.4358 38.7035H13.0484C12.7436 38.7035 12.4387 38.4596 12.4387 38.1548L11.2194 14.9868C11.2194 14.8039 11.2803 14.682 11.4023 14.56C11.5242 14.4381 11.7071 14.3771 11.829 14.3771H36.2164C36.5212 14.3771 36.8261 14.621 36.8261 14.9259L38.0454 38.0938C38.0454 38.2767 37.9845 38.3987 37.8625 38.5206C37.7406 38.6425 37.6187 38.7035 37.4358 38.7035ZM13.5971 37.4842H36.7651L35.6067 15.5355H12.4387L13.5971 37.4842Z" fill="#2E4059"/>
<path d="M36.8261 15.5356H11.2194C10.5487 15.5356 10 14.9868 10 14.3162V11.8774C10 11.1458 10.4877 10.6581 11.2194 10.6581H36.8261C37.4967 10.6581 38.0455 11.2068 38.0455 11.8774V14.3162C38.0455 14.9259 37.4358 15.5356 36.8261 15.5356ZM36.8261 11.8774H11.2194V14.3162H36.8261V11.8774Z" fill="#2E4059"/>
<path d="M20.8525 34.1309C20.5476 34.1309 20.2428 33.887 20.2428 33.5822L19.3282 19.5594C19.3282 19.1936 19.5721 18.9497 19.877 18.8888C20.1818 18.8888 20.4866 19.1327 20.5476 19.4375L21.4621 33.4602C21.4621 33.826 21.2183 34.1309 20.8525 34.1309Z" fill="#2E4059"/>
<path d="M25.7298 34.131C25.4249 34.131 25.1201 33.8871 25.1201 33.5822L24.1446 18.9498C24.0836 18.645 24.3275 18.3401 24.6933 18.2792C24.9981 18.2792 25.303 18.4621 25.364 18.8279L25.4249 19.4376L26.3395 33.4603C26.3395 33.8261 26.0956 34.131 25.7298 34.131Z" fill="#2E4059"/>
<path d="M30.5463 33.5213C30.2415 33.5213 29.9366 33.2774 29.9366 32.9726L29.0221 18.9498C29.0221 18.584 29.266 18.3401 29.5708 18.2792C29.9366 18.2792 30.1805 18.523 30.2415 18.8279L31.156 32.8506C31.156 33.2164 30.9121 33.5213 30.5463 33.5213Z" fill="#2E4059"/>
<path d="M17.3161 22.364C17.0113 22.364 16.7064 22.1201 16.7064 21.8153C16.7064 21.4495 16.9503 21.2056 17.2551 21.1446L31.8875 20.352C32.1924 20.352 32.4972 20.5959 32.5582 20.9007C32.5582 21.2665 32.3143 21.5104 32.0095 21.5714L17.3161 22.364Z" fill="#2E4059"/>
<path d="M17.9258 27.1806C17.621 27.1806 17.3162 26.9367 17.3162 26.5709C17.3162 26.2051 17.56 25.9612 17.8649 25.9612L32.4973 25.2296C32.8021 25.2296 33.107 25.4735 33.107 25.7783C33.107 26.1441 32.8631 26.388 32.5583 26.388L17.9258 27.1806Z" fill="#2E4059"/>
<path d="M18.5355 32.058C18.2306 32.058 17.9258 31.8142 17.9258 31.5093C17.9258 31.1435 18.1697 30.8996 18.4745 30.8387L33.1069 30.0461C33.4117 30.0461 33.7166 30.29 33.7776 30.5948C33.7776 30.9606 33.5337 31.2045 33.2288 31.2654L18.5355 32.058Z" fill="#2E4059"/>
<path d="M36.2164 11.8774H11.829C11.4632 11.8774 11.2194 11.6336 11.2194 11.2678V7.60965C11.2194 7.24384 11.4632 6.99997 11.829 6.99997H36.2164C36.5822 6.99997 36.8261 7.24384 36.8261 7.60965V11.2678C36.8261 11.6336 36.5822 11.8774 36.2164 11.8774ZM12.4387 10.6581H35.6067V8.21934H12.4387V10.6581Z" fill="#2E4059"/>
<path d="M24.3275 10.0484C23.8397 10.0484 23.413 9.62157 23.413 9.13382C23.413 8.64608 23.8397 8.2193 24.3275 8.2193C24.8152 8.2193 25.242 8.64608 25.242 9.13382C25.242 9.62157 24.8152 10.0484 24.3275 10.0484ZM24.3275 8.82898C24.1446 8.82898 24.0226 8.95092 24.0226 9.13382C24.0226 9.31673 24.1446 9.43867 24.3275 9.43867C24.5104 9.43867 24.6323 9.31673 24.6323 9.13382C24.6323 8.95092 24.5104 8.82898 24.3275 8.82898Z" fill="#2E4059"/>
<path d="M31.3389 13.4016C30.9731 13.4016 30.7292 13.1578 30.7292 12.792C30.7292 12.4261 30.9731 12.1823 31.3389 12.1823C31.5828 12.1823 31.9486 11.6945 31.9486 10.9629C31.9486 10.2313 31.5828 9.74354 31.3389 9.74354C30.9731 9.74354 30.7292 9.49966 30.7292 9.13385C30.7292 8.76804 30.9731 8.52417 31.3389 8.52417C32.3754 8.52417 33.168 9.6216 33.168 10.9629C33.168 12.3042 32.3754 13.4016 31.3389 13.4016Z" fill="#2E4059"/>
<path d="M17.3161 13.4016C16.9503 13.4016 16.7064 13.1578 16.7064 12.792C16.7064 12.4261 16.9503 12.1823 17.3161 12.1823C17.56 12.1823 17.9258 11.6945 17.9258 10.9629C17.9258 10.2313 17.56 9.74354 17.3161 9.74354C16.9503 9.74354 16.7064 9.49966 16.7064 9.13385C16.7064 8.76804 16.9503 8.52417 17.3161 8.52417C18.3526 8.52417 19.1452 9.6216 19.1452 10.9629C19.1452 12.3042 18.3526 13.4016 17.3161 13.4016Z" fill="#2E4059"/>
<path d="M31.0342 10.0484C30.5464 10.0484 30.1196 9.62157 30.1196 9.13382C30.1196 8.64608 30.5464 8.2193 31.0342 8.2193C31.5219 8.2193 31.9487 8.64608 31.9487 9.13382C31.9487 9.62157 31.5219 10.0484 31.0342 10.0484ZM31.0342 8.82898C30.8512 8.82898 30.7293 8.95092 30.7293 9.13382C30.7293 9.31673 30.8512 9.43867 31.0342 9.43867C31.2171 9.43867 31.339 9.31673 31.339 9.13382C31.339 8.95092 31.2171 8.82898 31.0342 8.82898Z" fill="#2E4059"/>
<path d="M17.0114 10.0484C16.5237 10.0484 16.0969 9.62157 16.0969 9.13382C16.0969 8.64608 16.5237 8.2193 17.0114 8.2193C17.4992 8.2193 17.926 8.64608 17.926 9.13382C17.926 9.62157 17.4992 10.0484 17.0114 10.0484ZM17.0114 8.82898C16.8285 8.82898 16.7066 8.95092 16.7066 9.13382C16.7066 9.31673 16.8285 9.43867 17.0114 9.43867C17.1944 9.43867 17.3163 9.31673 17.3163 9.13382C17.3163 8.95092 17.1944 8.82898 17.0114 8.82898Z" fill="#2E4059"/>
</svg>
