<svg width="49" height="48" viewBox="0 0 49 48" fill="none" xmlns="http://www.w3.org/2000/svg">
<path d="M32.0832 11.0319C30.2862 11.0319 28.8245 12.4937 28.8245 14.2903C28.8245 16.0873 30.2862 17.549 32.0832 17.549C33.8798 17.549 35.3416 16.0873 35.3416 14.2903C35.3416 12.4937 33.8798 11.0319 32.0832 11.0319ZM32.0832 16.2694C30.9919 16.2694 30.1041 15.3815 30.1041 14.2903C30.1041 13.1991 30.9919 12.3115 32.0832 12.3115C33.1744 12.3115 34.0619 13.1991 34.0619 14.2903C34.0619 15.3815 33.1744 16.2694 32.0832 16.2694Z" fill="#2E4059"/>
<path d="M32.0812 8C29.8411 8 27.7972 8.83725 26.2301 10.2072C20.3427 9.67829 14.874 12.9143 12.4451 18.1593L12.2103 17.1782C12.1282 16.8345 11.7845 16.6249 11.439 16.7049C11.0953 16.7874 10.8835 17.1326 10.9657 17.4762C11.2495 18.6463 11.6264 20.2744 11.7049 20.5188C11.8329 20.9231 12.2858 21.08 12.6277 20.8814L15.2956 19.3306C15.6012 19.1529 15.7049 18.7614 15.5274 18.4559C15.3494 18.1507 14.9579 18.0463 14.6527 18.2241L13.5245 18.88C15.5455 14.3262 20.0646 11.3846 25.0736 11.4263C23.8867 12.94 23.172 14.8409 23.172 16.9092C23.172 18.5309 23.6094 20.1154 24.4373 21.4925C29.0463 29.1309 40.9901 25.9929 40.9901 16.9092C40.9901 11.9966 36.9935 8 32.0812 8ZM26.5049 22.0995C27.9197 20.4963 29.9234 19.5868 32.0812 19.5868C34.2389 19.5868 36.2425 20.4963 37.6573 22.0993C34.7147 25.2742 29.584 25.4182 26.5049 22.0995ZM38.4541 21.0836C36.807 19.3133 34.5312 18.3072 32.0812 18.3072C29.6311 18.3072 27.3552 19.3134 25.7081 21.084C24.833 19.7537 24.4516 18.3477 24.4516 16.9092C24.4516 12.7023 27.8744 9.27962 32.0812 9.27962C36.2881 9.27962 39.7105 12.7023 39.7105 16.9092C39.7105 18.3454 39.3307 19.7505 38.4541 21.0836Z" fill="#2E4059"/>
<path d="M17.9108 31.7194C19.7078 31.7194 21.1695 30.2577 21.1695 28.4607C21.1695 26.6641 19.7078 25.2023 17.9108 25.2023C16.1138 25.2023 14.6521 26.6641 14.6521 28.4607C14.6521 30.2577 16.1138 31.7194 17.9108 31.7194ZM17.9108 26.4819C19.002 26.4819 19.8899 27.3695 19.8899 28.4607C19.8899 29.552 19.002 30.4398 17.9108 30.4398C16.8196 30.4398 15.9317 29.552 15.9317 28.4607C15.9317 27.3695 16.8196 26.4819 17.9108 26.4819Z" fill="#2E4059"/>
<path d="M23.7842 37.7809C24.2028 37.8185 24.6199 37.8423 25.0333 37.8423C30.4222 37.8423 35.2906 34.703 37.5471 29.8365L37.7798 30.8091C37.8614 31.1494 38.2034 31.3644 38.5511 31.2824C38.8948 31.2002 39.1066 30.8547 39.0244 30.511C38.3233 27.6325 38.3538 26.9548 37.6212 27.0278C37.5429 27.0357 37.3883 27.0906 37.3624 27.1055L34.6945 28.6563C34.3889 28.8341 34.2852 29.2255 34.4627 29.531C34.6404 29.8363 35.0306 29.94 35.3374 29.7628L36.4656 29.107C34.444 33.6573 29.9326 36.5893 24.9375 36.5547C26.2158 34.9102 26.8181 32.9939 26.8181 31.0796C26.8181 26.167 22.8215 22.1704 17.9089 22.1704C12.9966 22.1704 9 26.167 9 31.0796C8.99999 38.7233 18.0654 42.8184 23.7842 37.7809ZM12.3327 36.2699C13.7474 34.6668 15.7511 33.7573 17.9089 33.7573C20.0667 33.7573 22.0702 34.6668 23.4851 36.2698C20.4916 39.4985 15.3622 39.5394 12.3327 36.2699ZM17.9089 23.45C22.1157 23.45 25.5385 26.8728 25.5385 31.0796C25.5385 32.5168 25.1584 33.921 24.2819 35.2543C22.6348 33.4837 20.359 32.4776 17.9089 32.4776C15.4588 32.4776 13.183 33.4838 11.5359 35.2543C10.6624 33.9259 10.2796 32.521 10.2796 31.0796C10.2796 26.8728 13.702 23.45 17.9089 23.45Z" fill="#2E4059"/>
</svg>
