<svg width="49" height="48" viewBox="0 0 49 48" fill="none" xmlns="http://www.w3.org/2000/svg">
<path d="M25 24C25.7054 24 26.2387 24 26.6 24C33.6692 24 39.4 29.7308 39.4 36.8V37.6H37.8V36.8C37.8 30.6144 32.7855 25.6 26.6 25.6C26.2378 25.6 25.7045 25.6 25 25.6C25 25.1582 24.6418 24.8 24.2 24.8V24H25Z" fill="#2E4059"/>
<path d="M26.6 20.8C29.2509 20.8 31.4 18.651 31.4 16C31.4 13.349 29.2509 11.2 26.6 11.2C23.949 11.2 21.8 13.349 21.8 16C21.8 18.651 23.949 20.8 26.6 20.8ZM26.6 22.4C23.0653 22.4 20.2 19.5346 20.2 16C20.2 12.4654 23.0653 9.60001 26.6 9.60001C30.1346 9.60001 33 12.4654 33 16C33 19.5346 30.1346 22.4 26.6 22.4Z" fill="#2E4059"/>
<path d="M17.8001 33.6C17.8001 34.0418 17.4419 34.4 17.0001 34.4C16.5583 34.4 16.2001 34.0418 16.2001 33.6V32.7317C15.734 32.567 15.4001 32.1225 15.4001 31.6C15.4001 30.9373 15.9374 30.4 16.6001 30.4H17.4001C18.0628 30.4 18.6001 30.9373 18.6001 31.6C18.6001 32.1225 18.2662 32.567 17.8001 32.7317V33.6ZM12.2001 26.4V24C12.2001 21.349 14.3491 19.2 17.0001 19.2C19.6511 19.2 21.8001 21.349 21.8001 24V26.4H23.4001V38.4H10.6001V26.4H12.2001ZM12.2001 28V36.8H21.8001V28H12.2001ZM13.8001 26.4H20.2001V24C20.2001 22.2327 18.7674 20.8 17.0001 20.8C15.2328 20.8 13.8001 22.2327 13.8001 24V26.4Z" fill="#2E4059"/>
</svg>
