<svg width="14" height="18" viewBox="0 0 14 18" fill="none" xmlns="http://www.w3.org/2000/svg">
<path d="M11.9269 2.19132C11.7104 2.10646 11.6035 1.86237 11.6883 1.64583C11.7732 1.42929 12.0173 1.32239 12.2338 1.40725C12.646 1.56814 12.998 1.85135 13.2449 2.21171C13.4851 2.56269 13.6262 2.98531 13.6262 3.43933V15.8186C13.6262 16.4186 13.381 16.9647 12.9854 17.3592C12.5903 17.7543 12.0448 18 11.4448 18H2.1814C1.58136 18 1.03533 17.7548 0.640811 17.3592C0.245745 16.9641 0 16.4186 0 15.8186V3.43933C0 2.98586 0.141055 2.56269 0.38129 2.21171C0.628137 1.85135 0.980225 1.56814 1.39237 1.40725C1.60891 1.32239 1.85301 1.42984 1.93786 1.64583C2.02271 1.86237 1.91527 2.10702 1.69928 2.19132C1.44582 2.2905 1.22873 2.46461 1.07665 2.68611C0.930084 2.90045 0.843578 3.15997 0.843578 3.43878V15.818C0.843578 16.1856 0.994551 16.52 1.23699 16.7625C1.47998 17.0049 1.81389 17.1553 2.1814 17.1553H11.4448C11.8123 17.1553 12.1467 17.0049 12.3892 16.7625C12.6316 16.5195 12.7826 16.1856 12.7826 15.818V3.43878C12.7826 3.15997 12.6961 2.90045 12.5495 2.68611C12.3975 2.46461 12.1809 2.28995 11.9269 2.19132ZM3.07402 15.0125C2.84095 15.0125 2.6525 14.8235 2.6525 14.5904C2.6525 14.3574 2.8415 14.1689 3.07402 14.1689H6.99382C7.22689 14.1689 7.41588 14.3579 7.41588 14.5904C7.41588 14.8235 7.22689 15.0125 6.99382 15.0125H3.07402ZM9.64356 15.0125C9.41049 15.0125 9.22205 14.8235 9.22205 14.5904C9.22205 14.3574 9.41104 14.1689 9.64356 14.1689H10.5516C10.7847 14.1689 10.9731 14.3579 10.9731 14.5904C10.9731 14.8235 10.7841 15.0125 10.5516 15.0125H9.64356ZM3.07402 12.0536C2.84095 12.0536 2.6525 11.8646 2.6525 11.6321C2.6525 11.399 2.8415 11.2101 3.07402 11.2101H10.5516C10.7847 11.2101 10.9731 11.399 10.9731 11.6321C10.9731 11.8652 10.7841 12.0536 10.5516 12.0536H3.07402ZM3.07402 9.09532C2.84095 9.09532 2.6525 8.90633 2.6525 8.67326C2.6525 8.44019 2.8415 8.25174 3.07402 8.25174H10.5516C10.7847 8.25174 10.9731 8.44074 10.9731 8.67326C10.9731 8.90633 10.7841 9.09532 10.5516 9.09532H3.07402ZM4.71599 0H8.90909C9.37137 0 9.79123 0.188992 10.0954 0.493143C10.3995 0.797294 10.5885 1.21715 10.5885 1.67944C10.5885 2.14173 10.3995 2.56159 10.0954 2.86574C9.79123 3.16989 9.37137 3.35888 8.90909 3.35888H4.71599C4.2537 3.35888 3.83384 3.16989 3.52969 2.86574C3.22554 2.56159 3.03655 2.14173 3.03655 1.67944C3.03655 1.21715 3.22554 0.797294 3.52969 0.493143C3.83384 0.188992 4.2537 0 4.71599 0ZM8.90909 0.843578H4.71599C4.48678 0.843578 4.27795 0.937798 4.12642 1.08932C3.9749 1.24085 3.88068 1.44968 3.88068 1.67889C3.88068 1.90866 3.9749 2.11748 4.12642 2.26846C4.27795 2.41998 4.48678 2.5142 4.71599 2.5142H8.90909C9.1383 2.5142 9.34713 2.41998 9.49865 2.26846C9.65018 2.11693 9.7444 1.90811 9.7444 1.67889C9.7444 1.44968 9.65018 1.24085 9.49865 1.08932C9.34713 0.937798 9.1383 0.843578 8.90909 0.843578Z" fill="#2E4059"/>
</svg>
