<svg width="22" height="22" viewBox="0 0 22 22" fill="none" xmlns="http://www.w3.org/2000/svg">
<g clip-path="url(#clip0_206_271)">
<path fill-rule="evenodd" clip-rule="evenodd" d="M10.6384 5C7.60203 5 5.13684 7.46519 5.13684 10.5015C5.13684 13.5378 7.60203 16.003 10.6384 16.003C13.6747 16.003 16.1399 13.5378 16.1399 10.5015C16.1399 7.46519 13.6747 5 10.6384 5ZM10.6384 5.72783C13.2731 5.72783 15.412 7.86678 15.412 10.5015C15.412 13.1362 13.2731 15.2752 10.6384 15.2752C8.00362 15.2752 5.86467 13.1362 5.86467 10.5015C5.86467 7.86678 8.00362 5.72783 10.6384 5.72783Z" fill="#2E4059"/>
<path fill-rule="evenodd" clip-rule="evenodd" d="M10.2745 7.60924C9.53924 7.77522 8.99036 8.43256 8.99036 9.2173C8.99036 10.1265 9.72851 10.8654 10.6385 10.8654C11.1466 10.8654 11.5586 11.2782 11.5586 11.7855C11.5586 12.2937 11.1466 12.7064 10.6385 12.7064C10.1303 12.7064 9.71831 12.2937 9.71831 11.7855C9.71831 11.5846 9.55525 11.4216 9.35434 11.4216C9.15342 11.4216 8.99036 11.5846 8.99036 11.7855C8.99036 12.5703 9.53924 13.2276 10.2745 13.3936V13.9265C10.2745 14.1274 10.4375 14.2904 10.6385 14.2904C10.8394 14.2904 11.0024 14.1274 11.0024 13.9265V13.3936C11.7377 13.2276 12.2866 12.5703 12.2866 11.7855C12.2866 10.8763 11.5484 10.1374 10.6385 10.1374C10.1303 10.1374 9.71831 9.72468 9.71831 9.2173C9.71831 8.70918 10.1303 8.29643 10.6385 8.29643C11.1466 8.29643 11.5586 8.70918 11.5586 9.2173C11.5586 9.41821 11.7217 9.58128 11.9226 9.58128C12.1235 9.58128 12.2866 9.41821 12.2866 9.2173C12.2866 8.43256 11.7377 7.77522 11.0024 7.60924V7.07638C11.0024 6.87546 10.8394 6.7124 10.6385 6.7124C10.4375 6.7124 10.2745 6.87546 10.2745 7.07638V7.60924Z" fill="#2E4059"/>
<path fill-rule="evenodd" clip-rule="evenodd" d="M4.24617 12.6106C3.08281 11.4473 3.08281 9.5561 4.24617 8.39273C4.38794 8.25097 4.38938 8.0215 4.24615 7.87827C4.10438 7.73651 3.87348 7.73651 3.73171 7.87827C2.28335 9.32663 2.28333 11.6768 3.73169 13.1251C3.87345 13.2669 4.1044 13.2668 4.24617 13.1251C4.3894 12.9818 4.38794 12.7524 4.24617 12.6106Z" fill="#2E4059"/>
<path fill-rule="evenodd" clip-rule="evenodd" d="M2.69642 14.165C0.672958 12.1415 0.672958 8.86041 2.69642 6.83695C2.8394 6.69397 2.83692 6.46376 2.69394 6.32079C2.55339 6.18024 2.3232 6.17777 2.18023 6.32075C-0.126766 8.62774 -0.126766 12.3742 2.18023 14.6812C2.3232 14.8242 2.55347 14.8217 2.69402 14.6812C2.83699 14.5382 2.8394 14.308 2.69642 14.165Z" fill="#2E4059"/>
<path fill-rule="evenodd" clip-rule="evenodd" d="M17.5482 13.1251C18.9966 11.6768 18.9966 9.32663 17.5482 7.87827C17.4064 7.73651 17.1755 7.73651 17.0338 7.87827C16.8905 8.0215 16.892 8.25097 17.0337 8.39273C18.1971 9.5561 18.1971 11.4473 17.0337 12.6106C16.892 12.7524 16.8905 12.9818 17.0337 13.1251C17.1755 13.2668 17.4065 13.2669 17.5482 13.1251Z" fill="#2E4059"/>
<path fill-rule="evenodd" clip-rule="evenodd" d="M19.0968 14.6812C21.4037 12.3742 21.4037 8.62774 19.0968 6.32075C18.9538 6.17777 18.7236 6.18024 18.583 6.32079C18.4401 6.46376 18.4376 6.69397 18.5806 6.83695C20.604 8.86041 20.604 12.1415 18.5806 14.165C18.4376 14.308 18.44 14.5382 18.583 14.6812C18.7235 14.8217 18.9538 14.8242 19.0968 14.6812Z" fill="#2E4059"/>
</g>
<defs>
<clipPath id="clip0_206_271">
<rect width="22" height="22" fill="white"/>
</clipPath>
</defs>
</svg>
