<svg width="22" height="22" viewBox="0 0 22 22" fill="none" xmlns="http://www.w3.org/2000/svg">
<path d="M14.9405 2H7.2365C7.23425 2 7.23425 2 7.232 2H5V2.918H6.7775V4.98575C6.7775 6.2615 7.304 7.49675 8.213 8.372C8.26475 8.42375 8.321 8.4755 8.37725 8.525L8.9645 9.038C9.52925 9.533 9.85325 10.2485 9.85325 11C9.85325 11.7515 9.52925 12.467 8.9645 12.962L8.3795 13.475C7.3625 14.3705 6.77975 15.6597 6.77975 17.0143V19.082H5.00225V20H7.23875H14.9405H17.177V19.082H15.3995V17.0143C15.3995 15.6597 14.8168 14.3682 13.7975 13.4727L13.2102 12.9597C12.6455 12.4647 12.3215 11.7493 12.3215 10.9978C12.3215 10.2463 12.6455 9.53075 13.2102 9.03575L13.7975 8.525C14.7312 7.70375 15.296 6.56975 15.386 5.33C15.386 5.3255 15.3883 5.285 15.3883 5.2805C15.3927 5.1815 15.3973 5.08475 15.3973 4.9835V2.91575H17.1748V2H14.9427H14.9405ZM13.1945 7.83425L12.6072 8.34725C11.8445 9.0155 11.4058 9.983 11.4058 10.9978C11.4058 12.0148 11.8445 12.98 12.6072 13.6482L13.1922 14.1613C14.0112 14.8813 14.4815 15.9207 14.4815 17.012V19.0798H7.6955V17.012C7.6955 15.9207 8.16575 14.8813 8.9825 14.1613L9.56975 13.6482C10.3325 12.98 10.7713 12.0125 10.7713 10.9978C10.7713 9.983 10.3325 9.0155 9.56975 8.34725L9.365 8.16725C9.37175 8.16725 9.37625 8.1695 9.383 8.1695C10.2965 8.1695 11.1133 7.7645 11.6667 7.12325C11.912 6.8375 12.182 6.57425 12.5015 6.374C13.1495 6.086 13.7953 5.798 14.4433 5.50775C14.3173 6.41 13.8807 7.229 13.1945 7.83425Z" fill="#2E4059"/>
</svg>
