<svg width="22" height="22" viewBox="0 0 22 22" fill="none" xmlns="http://www.w3.org/2000/svg">
<path d="M3.81837 2.81837H15.2755V12.2296H16.0939V2.40918L15.6847 2H3.40918L3 2.40918V17.549L3.40918 17.9582H10.7745V17.1398H3.81837V2.81837Z" fill="#2E4059"/>
<path d="M15.6847 18.2322C16.1367 18.2322 16.5031 17.8658 16.5031 17.4138C16.5031 16.9619 16.1367 16.5955 15.6847 16.5955C15.2327 16.5955 14.8663 16.9619 14.8663 17.4138C14.8663 17.8658 15.2327 18.2322 15.6847 18.2322Z" fill="#2E4059"/>
<path d="M18.0171 15.6625L18.5777 15.0938L17.9967 14.5209L17.3215 15.2084C16.9366 15.0166 16.5212 14.8934 16.0939 14.8442V13.7312H15.2756V14.8442C14.848 14.8914 14.4322 15.0148 14.048 15.2084L13.3729 14.5209L12.7918 15.0938L13.3565 15.6585C12.8193 16.0877 12.374 16.6207 12.0471 17.2256V17.5898C12.0962 17.688 13.2747 19.9999 15.6848 19.9999C18.0949 19.9999 19.2733 17.688 19.3224 17.5898V17.2256C18.9957 16.6229 18.552 16.0915 18.0171 15.6625ZM15.6848 19.1856C14.138 19.1856 13.1887 17.9008 12.8859 17.4139C13.1887 16.9269 14.138 15.638 15.6848 15.638C17.2315 15.638 18.1808 16.9269 18.4836 17.4139C18.1808 17.9008 17.2315 19.1856 15.6848 19.1856Z" fill="#2E4059"/>
<path d="M13.2295 4.45508H7.91016V5.27345H13.2295V4.45508Z" fill="#2E4059"/>
<path d="M13.2296 6.91016H5.86426V7.72852H13.2296V6.91016Z" fill="#2E4059"/>
<path d="M13.2296 9.36523H5.86426V10.1836H13.2296V9.36523Z" fill="#2E4059"/>
<path d="M13.2296 11.8203H5.86426V12.6387H13.2296V11.8203Z" fill="#2E4059"/>
<path d="M10.7745 14.2756H5.86426V15.094H10.7745V14.2756Z" fill="#2E4059"/>
</svg>
