<svg width="16" height="18" viewBox="0 0 16 18" fill="none" xmlns="http://www.w3.org/2000/svg">
<path d="M2.83596 3.76851L7.66823 3.02945C7.87668 2.99155 8.02828 2.80205 7.99038 2.5936C7.95248 2.38515 7.76298 2.23355 7.55453 2.27145L2.72226 3.0105C2.51381 3.0484 2.36221 3.2379 2.40011 3.44635C2.43801 3.63586 2.58961 3.76851 2.77911 3.76851C2.79806 3.76851 2.81701 3.76851 2.83596 3.76851Z" fill="#2E4059"/>
<path d="M14.4335 4.84865L10.4919 4.35595L9.9802 1.05864C9.92335 0.736488 9.7528 0.452237 9.4875 0.243786C9.2222 0.0542853 8.90005 -0.0404651 8.55895 0.0163851L1.05472 1.15339C0.372518 1.24814 -0.0822835 1.89244 0.0124668 2.55569L1.62322 13.2056C1.68007 13.5278 1.85062 13.812 2.11592 14.0205C2.32438 14.1721 2.58968 14.2668 2.85498 14.2668C2.91183 14.2668 2.98763 14.2668 3.04448 14.2479L4.35203 14.0394L4.16253 15.6502C4.06778 16.3324 4.56048 16.9577 5.24269 17.0335L12.7848 17.9811C12.8417 17.9811 12.8796 18 12.9364 18C13.5428 18 14.0924 17.5452 14.1682 16.9198L15.5136 6.23201C15.5894 5.54981 15.1157 4.92445 14.4335 4.84865ZM2.93078 13.4709C2.81708 13.4899 2.68443 13.4709 2.58968 13.3951C2.49493 13.3193 2.41913 13.2246 2.40018 13.0919L0.78942 2.44199C0.751519 2.19564 0.92207 1.94929 1.16842 1.91139L8.67265 0.774388C8.6916 0.774388 8.71055 0.774388 8.74845 0.774388C8.97585 0.774388 9.16535 0.944938 9.20325 1.17234L9.677 4.24225L6.89134 3.8822C6.56919 3.8443 6.24704 3.93905 5.98174 4.12855C5.81119 4.2612 5.67854 4.4507 5.60274 4.65915L3.02553 5.0571C2.81708 5.095 2.66548 5.2845 2.70338 5.49296C2.74128 5.68246 2.89288 5.83406 3.08238 5.83406C3.10133 5.83406 3.12028 5.83406 3.13923 5.83406L5.45114 5.49296L5.28059 6.83841L3.34768 7.12266C3.13923 7.16056 2.98763 7.35006 3.02553 7.55851C3.06343 7.74801 3.21503 7.88066 3.40453 7.88066C3.42348 7.88066 3.44243 7.88066 3.46138 7.88066L5.18584 7.61536L5.01529 8.96082L3.65088 9.16927C3.44243 9.20717 3.29083 9.39667 3.32873 9.60512C3.36663 9.79462 3.51823 9.94622 3.70773 9.94622C3.72668 9.94622 3.74563 9.94622 3.76458 9.94622L4.90159 9.77567L4.73103 11.1022L3.95408 11.2159C3.74563 11.2538 3.59403 11.4433 3.63193 11.6517C3.65088 11.8412 3.82143 11.9739 4.01093 11.9739C4.02988 11.9739 4.04883 11.9739 4.06778 11.9739L4.61733 11.8981L4.44678 13.2435L2.93078 13.4709ZM14.7367 6.13726L13.3912 16.8251C13.3533 17.0714 13.1259 17.2609 12.8796 17.223L5.33744 16.2755C5.09109 16.2376 4.90158 16.0102 4.93948 15.7639L6.28494 5.07605C6.30389 4.96235 6.36074 4.84865 6.45549 4.77285C6.55024 4.69705 6.66394 4.65915 6.79659 4.6781L14.3387 5.62561C14.5851 5.64456 14.7556 5.87196 14.7367 6.13726Z" fill="#2E4059"/>
<path d="M12.8226 6.74374L7.97139 6.13734C7.76294 6.11839 7.55448 6.26999 7.53553 6.47844C7.51658 6.68689 7.66819 6.89534 7.87664 6.91429L12.7279 7.5207C12.7468 7.5207 12.7658 7.5207 12.7847 7.5207C12.9742 7.5207 13.1448 7.3691 13.1637 7.1796C13.2016 6.95219 13.05 6.76269 12.8226 6.74374Z" fill="#2E4059"/>
<path d="M12.5763 8.79037L7.72505 8.18397C7.5166 8.16502 7.30815 8.31662 7.2892 8.52507C7.27025 8.73352 7.42185 8.94197 7.6303 8.96092L12.4626 9.56733C12.4815 9.56733 12.5005 9.56733 12.5194 9.56733C12.7089 9.56733 12.8795 9.41573 12.8984 9.22623C12.9363 9.01778 12.7847 8.82827 12.5763 8.79037Z" fill="#2E4059"/>
<path d="M12.3111 10.8558L7.45991 10.2494C7.25146 10.2305 7.04301 10.3821 7.02406 10.5905C7.00511 10.799 7.15671 11.0074 7.36516 11.0264L12.2164 11.6328C12.2353 11.6328 12.2543 11.6328 12.2732 11.6328C12.4627 11.6328 12.6333 11.4812 12.6522 11.2917C12.6712 11.0832 12.5196 10.8937 12.3111 10.8558Z" fill="#2E4059"/>
<path d="M12.0457 12.9215L7.19453 12.3151C6.98608 12.2961 6.77763 12.4477 6.75868 12.6562C6.73973 12.8646 6.89133 13.0731 7.09978 13.092L11.951 13.6984C11.9699 13.6984 11.9889 13.6984 12.0078 13.6984C12.1973 13.6984 12.3679 13.5468 12.3868 13.3573C12.4058 13.1489 12.2542 12.9594 12.0457 12.9215Z" fill="#2E4059"/>
<path d="M11.7804 14.9869L6.92915 14.3805C6.7207 14.3616 6.51225 14.5132 6.4933 14.7216C6.47435 14.9301 6.62595 15.1385 6.8344 15.1575L11.6856 15.7639C11.7046 15.7639 11.7235 15.7639 11.7425 15.7639C11.932 15.7639 12.1025 15.6123 12.1215 15.4228C12.1594 15.2143 12.0078 15.0059 11.7804 14.9869Z" fill="#2E4059"/>
</svg>
